<svg width="154" height="17" viewBox="0 0 154 17" fill="none" xmlns="http://www.w3.org/2000/svg">
<path d="M0 15.9995H6.21449C9.48153 15.9995 11.2216 14.2949 11.2216 11.9796C11.2216 9.82759 9.6804 8.52788 8.02557 8.44975V8.30771C9.53835 7.9668 10.6534 6.89435 10.6534 5.18271C10.6534 3.00231 9.03409 1.45401 5.82386 1.45401H0V15.9995ZM3.07528 13.4853V9.62163H5.65341C7.13068 9.62163 8.04688 10.4739 8.04688 11.6742C8.04688 12.7679 7.30114 13.4853 5.58239 13.4853H3.07528ZM3.07528 7.54066V3.93981H5.41193C6.77557 3.93981 7.54972 4.64293 7.54972 5.69407C7.54972 6.84464 6.61222 7.54066 5.35511 7.54066H3.07528Z" fill="white"/>
<path d="M16.1914 1.45401H13.1658V15.9995H16.1914V1.45401Z" fill="white"/>
<path d="M23.544 16.2125C26.8537 16.2125 28.9134 13.9469 28.9134 10.5875C28.9134 7.20685 26.8537 4.94833 23.544 4.94833C20.2344 4.94833 18.1747 7.20685 18.1747 10.5875C18.1747 13.9469 20.2344 16.2125 23.544 16.2125ZM23.5582 13.8688C22.0312 13.8688 21.25 12.4696 21.25 10.5662C21.25 8.66282 22.0312 7.25657 23.5582 7.25657C25.0568 7.25657 25.8381 8.66282 25.8381 10.5662C25.8381 12.4696 25.0568 13.8688 23.5582 13.8688Z" fill="white"/>
<path d="M35.8097 16.2125C38.7145 16.2125 40.5398 14.508 40.6818 12.0009H37.8267C37.6491 13.1657 36.8821 13.8191 35.8452 13.8191C34.4318 13.8191 33.5156 12.633 33.5156 10.5449C33.5156 8.48526 34.4389 7.30629 35.8452 7.30629C36.9531 7.30629 37.6633 8.03782 37.8267 9.12447H40.6818C40.554 6.60316 38.6435 4.94833 35.7955 4.94833C32.4858 4.94833 30.4403 7.24237 30.4403 10.5875C30.4403 13.9043 32.4503 16.2125 35.8097 16.2125Z" fill="white"/>
<path d="M42.619 15.9995H45.6445V12.5336L46.4613 11.6032L49.4371 15.9995H52.9812L48.7269 9.81339L52.7752 5.09038H49.3022L45.8079 9.231H45.6445V1.45401H42.619V15.9995Z" fill="white"/>
<path d="M58.7393 16.2125C61.6442 16.2125 63.4695 14.508 63.6115 12.0009H60.7564C60.5788 13.1657 59.8118 13.8191 58.7749 13.8191C57.3615 13.8191 56.4453 12.633 56.4453 10.5449C56.4453 8.48526 57.3686 7.30629 58.7749 7.30629C59.8828 7.30629 60.593 8.03782 60.7564 9.12447H63.6115C63.4837 6.60316 61.5732 4.94833 58.7251 4.94833C55.4155 4.94833 53.37 7.24237 53.37 10.5875C53.37 13.9043 55.38 16.2125 58.7393 16.2125Z" fill="white"/>
<path d="M68.5742 9.69265C68.5813 8.2864 69.4407 7.46254 70.6765 7.46254C71.9052 7.46254 72.6296 8.25089 72.6225 9.59322V15.9995H75.6481V9.05344C75.6552 6.49663 74.1495 4.94833 71.8768 4.94833C70.2219 4.94833 69.114 5.72958 68.6168 7.01509H68.489V1.45401H65.5487V15.9995H68.5742V9.69265Z" fill="white"/>
<path d="M81.1399 16.2054C82.7521 16.2054 83.7962 15.5023 84.3288 14.4867H84.4141V15.9995H87.2834V8.64151C87.2834 6.04208 85.0817 4.94833 82.6527 4.94833C80.0391 4.94833 78.3203 6.19833 77.9013 8.18697L80.6996 8.41424C80.9055 7.68981 81.5518 7.15714 82.6385 7.15714C83.6683 7.15714 84.2578 7.6756 84.2578 8.57049V8.6131C84.2578 9.31623 83.5121 9.40856 81.6158 9.59322C79.4567 9.79208 77.5178 10.5165 77.5178 12.9526C77.5178 15.1117 79.059 16.2054 81.1399 16.2054ZM82.0064 14.1174C81.076 14.1174 80.4084 13.6841 80.4084 12.8532C80.4084 12.0009 81.1115 11.5819 82.1768 11.4327C82.8374 11.3404 83.9169 11.1841 84.2791 10.9426V12.1003C84.2791 13.2438 83.3345 14.1174 82.0064 14.1174Z" fill="white"/>
<path d="M89.6307 15.9995H92.6562V5.09038H89.6307V15.9995ZM91.1506 3.68413C92.0526 3.68413 92.7912 2.99521 92.7912 2.15004C92.7912 1.31197 92.0526 0.623047 91.1506 0.623047C90.2557 0.623047 89.517 1.31197 89.517 2.15004C89.517 2.99521 90.2557 3.68413 91.1506 3.68413Z" fill="white"/>
<path d="M98.1055 9.69265C98.1126 8.2864 98.9506 7.46254 100.172 7.46254C101.387 7.46254 102.118 8.25799 102.111 9.59322V15.9995H105.137V9.05344C105.137 6.51083 103.645 4.94833 101.373 4.94833C99.7532 4.94833 98.5813 5.74379 98.0913 7.01509H97.9634V5.09038H95.0799V15.9995H98.1055V9.69265Z" fill="white"/>
<path d="M109.712 16.184C110.621 16.184 111.409 15.4241 111.416 14.4795C111.409 13.5491 110.621 12.7892 109.712 12.7892C108.774 12.7892 108 13.5491 108.007 14.4795C108 15.4241 108.774 16.184 109.712 16.184Z" fill="#B1B8C7"/>
<path d="M118.829 16.2124C121.734 16.2124 123.559 14.5079 123.701 12.0008H120.846C120.669 13.1656 119.902 13.819 118.865 13.819C117.451 13.819 116.535 12.6329 116.535 10.5448C116.535 8.48517 117.458 7.3062 118.865 7.3062C119.973 7.3062 120.683 8.03773 120.846 9.12438H123.701C123.574 6.60307 121.663 4.94824 118.815 4.94824C115.505 4.94824 113.46 7.24228 113.46 10.5874C113.46 13.9042 115.47 16.2124 118.829 16.2124Z" fill="#B1B8C7"/>
<path d="M130.567 16.2124C133.877 16.2124 135.937 13.9468 135.937 10.5874C135.937 7.20676 133.877 4.94824 130.567 4.94824C127.258 4.94824 125.198 7.20676 125.198 10.5874C125.198 13.9468 127.258 16.2124 130.567 16.2124ZM130.582 13.8687C129.055 13.8687 128.273 12.4695 128.273 10.5661C128.273 8.66273 129.055 7.25648 130.582 7.25648C132.08 7.25648 132.862 8.66273 132.862 10.5661C132.862 12.4695 132.08 13.8687 130.582 13.8687Z" fill="#B1B8C7"/>
<path d="M137.904 15.9994H140.93V9.45108C140.93 8.2437 141.697 7.44114 142.705 7.44114C143.7 7.44114 144.367 8.12296 144.367 9.1954V15.9994H147.3V9.33745C147.3 8.20818 147.947 7.44114 149.048 7.44114C150.014 7.44114 150.738 8.04483 150.738 9.25932V15.9994H153.756V8.66273C153.756 6.29767 152.35 4.94824 150.319 4.94824C148.721 4.94824 147.478 5.765 147.031 7.015H146.917C146.569 5.7508 145.454 4.94824 143.955 4.94824C142.485 4.94824 141.37 5.72949 140.916 7.015H140.788V5.09029H137.904V15.9994Z" fill="#B1B8C7"/>
</svg>
