<svg width="29" height="39" viewBox="0 0 29 39" fill="none" xmlns="http://www.w3.org/2000/svg">
<path d="M14.7412 23.4H3.24824C1.96887 23.4 1.27674 21.9013 2.10637 20.9273L17.6718 2.65485C18.3234 1.88999 19.5695 2.45596 19.4223 3.44986L16.7196 21.6931C16.5743 22.6738 15.7325 23.4 14.7412 23.4Z" fill="#12A5B2"/>
<path d="M13.8589 15.6L25.3519 15.6C26.6312 15.6 27.3234 17.0987 26.4937 18.0727L10.9283 36.3452C10.2767 37.11 9.03057 36.544 9.17781 35.5501L11.8805 17.3069C12.0258 16.3262 12.8676 15.6 13.8589 15.6Z" fill="#6CD0D9"/>
<mask id="mask0" mask-type="alpha" maskUnits="userSpaceOnUse" x="1" y="2" width="19" height="22">
<path d="M14.9244 23.4002H2.90303C1.75958 23.4002 1.141 22.0607 1.88248 21.1903L17.912 2.37298C18.4943 1.68939 19.6081 2.19523 19.4765 3.08353L16.6926 21.8747C16.5628 22.7512 15.8104 23.4002 14.9244 23.4002Z" fill="#0E828C"/>
</mask>
<g mask="url(#mask0)">
<path opacity="0.1" fill-rule="evenodd" clip-rule="evenodd" d="M13.6755 14.7061L25.6969 14.7061C27.6026 14.7061 28.6336 16.9387 27.3978 18.3894L11.3682 37.2067C10.2036 38.5739 7.97609 37.5622 8.23929 35.7856L11.0232 16.9944C11.2179 15.6797 12.3464 14.7061 13.6755 14.7061ZM25.6969 15.5998L13.6755 15.5998C12.7894 15.5998 12.0371 16.2489 11.9073 17.1254L9.1234 35.9166C8.9918 36.8049 10.1055 37.3107 10.6879 36.6271L26.7174 17.8098C27.4589 16.9394 26.8403 15.5998 25.6969 15.5998Z" fill="black"/>
</g>
</svg>
